<svg width="164" height="50" viewBox="0 0 164 50" fill="none" xmlns="http://www.w3.org/2000/svg">
<path d="M40 0H10C4.47715 0 0 4.47715 0 10V40C0 45.5228 4.47715 50 10 50H40C45.5228 50 50 45.5228 50 40V10C50 4.47715 45.5228 0 40 0Z" fill="#60DBFB"/>
<path d="M65.88 29.808H73.824V33H61.752V17.16H65.88V29.808ZM79.6215 19.608C78.7895 19.608 78.1815 19.456 77.7975 19.152C77.4295 18.832 77.2455 18.336 77.2455 17.664C77.2455 16.976 77.4295 16.48 77.7975 16.176C78.1815 15.856 78.7895 15.696 79.6215 15.696C80.4375 15.696 81.0375 15.856 81.4215 16.176C81.8055 16.48 81.9975 16.976 81.9975 17.664C81.9975 18.336 81.8055 18.832 81.4215 19.152C81.0375 19.456 80.4375 19.608 79.6215 19.608ZM81.6615 21V33H77.5815V21H81.6615ZM91.2859 33.24C90.0859 33.24 88.9659 33.048 87.9259 32.664C86.9019 32.264 86.0539 31.696 85.3819 30.96L87.3019 28.704C87.7019 29.216 88.2299 29.648 88.8859 30C89.5579 30.336 90.3019 30.504 91.1179 30.504C91.6139 30.504 92.0219 30.432 92.3419 30.288C92.6619 30.144 92.8219 29.92 92.8219 29.616C92.8219 29.392 92.7419 29.216 92.5819 29.088C92.4219 28.944 92.1019 28.824 91.6219 28.728L89.9419 28.392C88.4379 28.088 87.3659 27.64 86.7259 27.048C86.1019 26.44 85.7899 25.648 85.7899 24.672C85.7899 24.016 85.9899 23.392 86.3899 22.8C86.7899 22.192 87.4059 21.704 88.2379 21.336C89.0699 20.952 90.1339 20.76 91.4299 20.76C92.6459 20.76 93.7179 20.936 94.6459 21.288C95.5739 21.64 96.3099 22.152 96.8539 22.824L94.9099 25.032C94.5259 24.552 94.0299 24.176 93.4219 23.904C92.8139 23.632 92.2059 23.496 91.5979 23.496C91.2139 23.496 90.8859 23.536 90.6139 23.616C90.3579 23.68 90.1659 23.776 90.0379 23.904C89.9099 24.032 89.8459 24.192 89.8459 24.384C89.8459 24.592 89.9419 24.776 90.1339 24.936C90.3419 25.08 90.7179 25.208 91.2619 25.32L93.4459 25.752C94.6779 25.976 95.5659 26.384 96.1099 26.976C96.6539 27.568 96.9259 28.28 96.9259 29.112C96.9259 29.896 96.7179 30.6 96.3019 31.224C95.8859 31.848 95.2619 32.344 94.4299 32.712C93.5979 33.064 92.5499 33.24 91.2859 33.24ZM105.739 17.184V28.728C105.739 29.304 105.875 29.72 106.147 29.976C106.435 30.216 106.827 30.336 107.323 30.336C107.707 30.336 108.035 30.296 108.307 30.216C108.595 30.12 108.851 29.984 109.075 29.808L109.507 32.328C109.107 32.616 108.603 32.84 107.995 33C107.387 33.16 106.763 33.24 106.123 33.24C105.211 33.24 104.419 33.112 103.747 32.856C103.091 32.6 102.579 32.192 102.211 31.632C101.859 31.072 101.675 30.328 101.659 29.4V18.312L105.739 17.184ZM109.315 21V23.904H99.5948V21H109.315ZM114.919 19.608C114.087 19.608 113.479 19.456 113.095 19.152C112.727 18.832 112.543 18.336 112.543 17.664C112.543 16.976 112.727 16.48 113.095 16.176C113.479 15.856 114.087 15.696 114.919 15.696C115.735 15.696 116.335 15.856 116.719 16.176C117.103 16.48 117.295 16.976 117.295 17.664C117.295 18.336 117.103 18.832 116.719 19.152C116.335 19.456 115.735 19.608 114.919 19.608ZM116.959 21V33H112.879V21H116.959ZM125.576 15.912V28.92C125.576 29.448 125.664 29.824 125.84 30.048C126.016 30.272 126.312 30.384 126.728 30.384C126.968 30.384 127.168 30.368 127.328 30.336C127.488 30.304 127.68 30.256 127.904 30.192L127.64 32.64C127.352 32.816 126.976 32.96 126.512 33.072C126.048 33.184 125.592 33.24 125.144 33.24C123.864 33.24 122.936 32.944 122.36 32.352C121.784 31.76 121.496 30.792 121.496 29.448V15.912H125.576ZM133.115 19.608C132.283 19.608 131.675 19.456 131.291 19.152C130.923 18.832 130.739 18.336 130.739 17.664C130.739 16.976 130.923 16.48 131.291 16.176C131.675 15.856 132.283 15.696 133.115 15.696C133.931 15.696 134.531 15.856 134.915 16.176C135.299 16.48 135.491 16.976 135.491 17.664C135.491 18.336 135.299 18.832 134.915 19.152C134.531 19.456 133.931 19.608 133.115 19.608ZM135.155 21V33H131.075V21H135.155ZM144.756 17.184V28.728C144.756 29.304 144.892 29.72 145.164 29.976C145.452 30.216 145.844 30.336 146.34 30.336C146.724 30.336 147.052 30.296 147.324 30.216C147.612 30.12 147.868 29.984 148.092 29.808L148.524 32.328C148.124 32.616 147.62 32.84 147.012 33C146.404 33.16 145.78 33.24 145.14 33.24C144.228 33.24 143.436 33.112 142.764 32.856C142.108 32.6 141.596 32.192 141.228 31.632C140.876 31.072 140.692 30.328 140.676 29.4V18.312L144.756 17.184ZM148.332 21V23.904H138.612V21H148.332ZM163.968 21L159.6 33C159.152 34.264 158.664 35.272 158.136 36.024C157.608 36.776 156.984 37.32 156.264 37.656C155.544 37.992 154.68 38.16 153.672 38.16C153 38.16 152.384 38.088 151.824 37.944C151.264 37.8 150.776 37.6 150.36 37.344L151.176 34.584C151.464 34.792 151.768 34.936 152.088 35.016C152.408 35.112 152.816 35.16 153.312 35.16C153.776 35.16 154.152 35.08 154.44 34.92C154.744 34.76 154.984 34.456 155.16 34.008L155.472 33.264L154.08 30L150.48 21H154.968L156.816 27.84L157.392 30.384L158.064 27.744L159.912 21H163.968Z" fill="#60DBFB"/>
<path d="M21.408 34.338H36.024V39H15.612V11.28H21.408V34.338Z" fill="white"/>
</svg>
