<?xml version="1.0" standalone="yes"?>
<svg xmlns="http://www.w3.org/2000/svg" width="780" height="372">
<path style="fill:#fdfdfd; stroke:none;" d="M0 0L0 372L780 372L780 0L0 0z"/>
<path style="fill:#b79c61; stroke:none;" d="M284 27.4391C218.065 37.7369 189.332 121.11 235.286 169.91C245.646 180.912 258.782 187.911 273 192.481C284.964 196.326 298.699 196.335 311 194.572C384.731 184.004 406.671 83.204 346 41.348C337.887 35.7509 328.666 31.3437 319 29.2106C307.862 26.7528 295.376 25.6623 284 27.4391M477.667 27.3333L478.333 27.6667L477.667 27.3333z"/>
<path style="fill:#62b9da; stroke:none;" d="M479 27.4398C462.513 29.2801 446.646 32.9719 433.001 42.9205C391.12 73.4551 386.429 135.096 423.449 171.482C442.194 189.907 468.529 196.573 494 193.826C504.294 192.716 515.225 188.112 524 182.796C582.324 147.46 575.323 59.1785 512 33.6042C502.022 29.5745 489.874 26.2261 479 27.4398z"/>
<path style="fill:#b79c61; stroke:none;" d="M484.667 27.3333L485.333 27.6667L484.667 27.3333M655 27.4391C632.723 30.9097 612.945 39.8531 598.669 58C564.853 100.984 581.463 169.371 633 189.536C648.742 195.696 666.429 196.222 683 193.7C691.54 192.4 700.51 188.444 708 184.269C772.818 148.134 756.634 41.96 683 28.9159C673.774 27.2815 664.398 25.9748 655 27.4391M106 28.4283C92.0867 30.4205 79.7394 34.5248 68 42.3549C58.9543 48.3883 51.3884 55.9542 45.3549 65C5.47222 124.795 57.8113 203.567 128 192.704C139.262 190.961 150.607 186.174 160 179.784C218.285 140.133 202.543 42.1743 130 29.9205C122.077 28.5821 114.032 27.2781 106 28.4283M469 28L469 29L472 29L469 28M494 28L495 29L494 28M464 29L465 30L464 29z"/>
<path style="fill:#42a544; stroke:none;" d="M474 29L475 30L474 29z"/>
<path style="fill:#3c5e70; stroke:none;" d="M475 29.4283C459.804 31.6041 445.43 36.1973 433 45.5139C424.033 52.2348 416.929 60.4799 411.065 70C375.022 128.518 429.495 201.842 495 191.704C529.626 186.345 560.431 154.375 562.911 119C566.189 72.2219 524.947 22.2762 475 29.4283z"/>
<path style="fill:#42a544; stroke:none;" d="M488 29L489 30L488 29z"/>
<path style="fill:#3c5e70; stroke:none;" d="M106 30.4283C68.0188 35.8668 35.7928 66.7446 33.0895 106C29.8197 153.481 74.1879 197.586 122 191.714C164.216 186.529 197.867 147.926 194.91 105C191.994 62.6466 148.981 24.2738 106 30.4283z"/>
<path style="fill:#b79c61; stroke:none;" d="M459 30L460 31L459 30z"/>
<path style="fill:#42a544; stroke:none;" d="M468 30L469 31L468 30M494 30L495 31L494 30z"/>
<path style="fill:#b79c61; stroke:none;" d="M503 30L504 31L503 30M455.667 31.3333L456.333 31.6667L455.667 31.3333z"/>
<path style="fill:#42a544; stroke:none;" d="M463 31L464 32L463 31M499 31L500 32L499 31z"/>
<path style="fill:#b79c61; stroke:none;" d="M506 31L507 32L506 31z"/>
<path style="fill:#42a544; stroke:none;" d="M459 32L460 33L459 32z"/>
<path style="fill:#b79c61; stroke:none;" d="M509 32L510 33L509 32M511 33L512 34L511 33M448 34L449 35L448 34M514 34L515 35L514 34M446 35L447 36L446 35z"/>
<path style="fill:#42a544; stroke:none;" d="M450 35L451 36L450 35z"/>
<path style="fill:#b79c61; stroke:none;" d="M516 35L517 36L516 35z"/>
<path style="fill:#42a544; stroke:none;" d="M448 36L449 37L448 36z"/>
<path style="fill:#b79c61; stroke:none;" d="M518 36L519 37L518 36z"/>
<path style="fill:#42a544; stroke:none;" d="M446 37L447 38L446 37M516 37L517 38L516 37M113 38C107.099 49.3749 95.896 57.1464 89.9691 69C73.6009 101.737 79.0128 145.471 111 167L113 153L115 153L119 167L120 167C127.565 157.106 136.497 149.86 141.573 138C156.956 102.051 138.444 63.9064 113 38M444 38L445 39L444 38M518 38L519 39L518 38z"/>
<path style="fill:#b79c61; stroke:none;" d="M522 38L523 39L522 38M438 39L439 40L438 39z"/>
<path style="fill:#42a544; stroke:none;" d="M520 39L521 40L520 39z"/>
<path style="fill:#b79c61; stroke:none;" d="M524 39L525 40L524 39z"/>
<path style="fill:#42a544; stroke:none;" d="M439 41L440 42L439 41M523 41L524 42L523 41z"/>
<path style="fill:#b79c61; stroke:none;" d="M432 43L433 44L432 43z"/>
<path style="fill:#42a544; stroke:none;" d="M526 43L527 44L526 43z"/>
<path style="fill:#fdfdfd; stroke:none;" d="M616 43L617 44L616 43z"/>
<path style="fill:#b79c61; stroke:none;" d="M531 44L532 45L531 44M429 45L430 46L429 45M532 45L533 46L532 45M428 46L429 47L428 46z"/>
<path style="fill:#42a544; stroke:none;" d="M530 46L531 47L530 46z"/>
<path style="fill:#b79c61; stroke:none;" d="M427 47L428 48L427 47z"/>
<path style="fill:#42a544; stroke:none;" d="M450 47L451 48L450 47z"/>
<path style="fill:#62b9da; stroke:none;" d="M440 87C425.564 90.8607 397.982 105.126 415.188 122.826C420.26 128.044 435.862 130.793 438.508 136.72C439.758 139.518 437.664 144.115 437.289 147C436.14 155.845 437.041 168.687 446.015 173.312C454.255 177.558 464.154 172.76 471 167.958C473.914 165.914 478.054 160.795 482 161.538C489.906 163.026 496.296 172.505 505 174.471C528.614 179.806 525.636 148.989 523 135C537.282 131.694 563.963 117.217 547.891 100.04C542.714 94.5066 527.114 91.6461 524.314 85.7222C518.975 74.4276 532.249 58.0423 516.985 49.2786C508.498 44.406 498.101 49.3328 491 54.49C488.292 56.4571 484.615 60.8798 481 60.8087C473.291 60.657 464.837 49.0807 456 47.6335C434.417 44.0988 435.059 73.811 440 87z"/>
<path style="fill:#42a544; stroke:none;" d="M455 47L456 48L455 47M506 47L507 48L506 47M512 47L513 48L512 47M429 48L430 49L429 48M446 48L447 49L446 48z"/>
<path style="fill:#b79c61; stroke:none;" d="M536 48L537 49L536 48M425 49L426 50L425 49z"/>
<path style="fill:#42a544; stroke:none;" d="M428 49L429 50L428 49M462 49L463 50L462 49M517 49L518 50L517 49z"/>
<path style="fill:#b79c61; stroke:none;" d="M537 49L538 50L537 49z"/>
<path style="fill:#42a544; stroke:none;" d="M464 50L465 51L464 50z"/>
<path style="fill:#b79c61; stroke:none;" d="M538 50L539 51L538 50z"/>
<path style="fill:#fdfdfd; stroke:none;" d="M645 159C646.909 165.105 659.556 172.357 666 171.744C671.316 171.238 676.49 167.164 681 164.579C691.729 158.428 707.131 152.617 715.721 143.671C719.766 139.459 719 133.376 719 128C719 114.282 721.692 97.3652 718.606 84.0008C716.103 73.166 694.912 65.6877 686 60.5787C680.025 57.1533 672.149 50.3704 665 50.3704C652.724 50.3704 634.401 66.0064 624 72.2006C619.959 74.6073 614.671 76.7213 612.318 81.0432C610.008 85.2845 611 91.3398 611 96C611 108.47 607.185 128.367 611.742 139.985C615.81 150.354 638.912 160.057 647.606 150.772C655.868 141.948 651 115.485 651 104C651 100.287 652.429 92.675 649.972 89.6042C644.19 82.3768 642.001 95.9618 642 99C641.994 111.739 644.971 128.664 641.682 140.956C640.251 146.304 635.013 145.898 631 143.814C617.199 136.648 620 126.849 620 113C620 106.095 617.125 91.8161 620.454 85.7462C625.259 76.9833 645.426 70.0446 654 65.1505C657.149 63.353 661.219 59.9855 665 59.9977C675.216 60.0305 691.226 73.9566 700 79C703.56 81.0462 708.755 83.0069 710.397 87.0934C713.38 94.5203 711 107.032 711 115C711 120.906 713.083 131.831 709.397 136.787C703.232 145.075 686.945 150.839 678 155.861C674.379 157.894 670.211 161.573 666 162.127C658.106 163.164 654.096 156.437 645 159z"/>
<path style="fill:#42a544; stroke:none;" d="M442 51L443 52L442 51M466 51L467 52L466 51M536 51L537 52L536 51z"/>
<path style="fill:#b79c61; stroke:none;" d="M539 51L540 52L539 51z"/>
<path style="fill:#42a544; stroke:none;" d="M441 52L442 53L441 52M537 52L538 53L537 52z"/>
<path style="fill:#b79c61; stroke:none;" d="M540 52L541 53L540 52z"/>
<path style="fill:#42a544; stroke:none;" d="M469 53L470 54L469 53M538 53L539 54L538 53z"/>
<path style="fill:#b79c61; stroke:none;" d="M541 53L542 54L541 53z"/>
<path style="fill:#42a544; stroke:none;" d="M449 54L450 55L449 54z"/>
<path style="fill:#3c5e70; stroke:none;" d="M450.044 54.7431C442.98 57.5777 440.387 79.3366 446.738 83.9329C449.399 85.8585 460.007 83.5516 462.961 82.3974C466.81 80.893 475.817 71.4728 474.655 67.0146C472.784 59.8328 456.931 51.9796 450.044 54.7431M486 67L486 68C496.247 79.7669 501.1 83.7434 517 85C517.815 74.6761 522.911 47.2818 503 55.3526C500.564 56.3401 498.197 57.6648 496 59.1011C492.446 61.4247 489.195 64.2172 486 67z"/>
<path style="fill:#b79c61; stroke:none;" d="M542 54L543 55L542 54M419 55L420 56L419 55z"/>
<path style="fill:#42a544; stroke:none;" d="M459 55L460 56L459 55M472 55L473 56L472 55M502 55L503 56L502 55M514 55L515 56L514 55z"/>
<path style="fill:#b79c61; stroke:none;" d="M543 55L544 56L543 55z"/>
<path style="fill:#42a544; stroke:none;" d="M488 56L489 57L488 56M541 56L542 57L541 56z"/>
<path style="fill:#b79c61; stroke:none;" d="M544 56L545 57L544 56z"/>
<path style="fill:#42a544; stroke:none;" d="M487 57L488 58L487 57M516 57L517 58L516 57M542 57L543 58L542 57z"/>
<path style="fill:#b79c61; stroke:none;" d="M545 57L546 58L545 57M416 58L417 59L416 58z"/>
<path style="fill:#42a544; stroke:none;" d="M419 58L420 59L419 58M438 58L439 59L438 58M477 59L478 60L477 59M495 59L496 60L495 59M478 60L479 61L478 60M524 60L525 61L524 60z"/>
<path style="fill:#b79c61; stroke:none;" d="M547 60L548 61L547 60M414 61L415 62L414 61z"/>
<path style="fill:#42a544; stroke:none;" d="M444 61L445 62L444 61M469 61L470 62L469 61M479 61L480 62L479 61z"/>
<path style="fill:#b79c61; stroke:none;" d="M548 61L549 62L548 61M413 62L414 63L413 62z"/>
<path style="fill:#42a544; stroke:none;" d="M437 62L438 63L437 62M491 62L492 63L491 62M546 62L547 63L546 62M415 63L416 64L415 63M490 63L491 64L490 63M518.333 63.6667L518.667 64.3333L518.333 63.6667z"/>
<path style="fill:#b79c61; stroke:none;" d="M411 65L412 66L411 65z"/>
<path style="fill:#42a544; stroke:none;" d="M548 65L549 66L548 65M413 66L414 67L413 66M525 66L525 73L526 73L525 66z"/>
<path style="fill:#b79c61; stroke:none;" d="M551 66L552 67L551 66M552 67L553 68L552 67M409 68L410 69L409 68z"/>
<path style="fill:#42a544; stroke:none;" d="M550 68L551 69L550 68M411 69L412 70L411 69M487 69L488 70L487 69z"/>
<path style="fill:#b79c61; stroke:none;" d="M408 70L409 71L408 70z"/>
<path style="fill:#42a544; stroke:none;" d="M488 70L489 71L488 70M472 72L473 73L472 72M471 73L472 74L471 73z"/>
<path style="fill:#3c5e70; stroke:none;" d="M474 82L488 82C484.307 72.4753 477.998 73.0363 474 82z"/>
<path style="fill:#42a544; stroke:none;" d="M518 73L518 76L519 76L518 73M553 73L554 74L553 73z"/>
<path style="fill:#b79c61; stroke:none;" d="M555 73L556 74L555 73M406 74L407 75L406 74z"/>
<path style="fill:#fdfdfd; stroke:none;" d="M296 122L295 122C290.913 130.097 288.619 137.725 280 142.442C257.434 154.794 239.059 133.232 239 112L297 112C297 103.572 296.551 95.3697 291.867 88C282.941 73.9569 261.848 70.1971 249.004 81.213C240.208 88.7565 236.483 99.6439 236.04 111C235.576 122.904 239.342 137.373 250 144.005C268.241 155.357 295.039 144.038 296 122z"/>
<path style="fill:#42a544; stroke:none;" d="M492 75L493 76L492 75z"/>
<path style="fill:#fdfdfd; stroke:none;" d="M302 76C302.474 89.125 322.935 97.32 323.557 110C323.746 113.848 319.031 118.148 316.87 121C310.604 129.273 303.499 137.199 298 146C308.263 143.095 321.244 122.317 326 113C336.605 121.135 342.937 142.169 356 146L337.424 121L330.792 110L336.873 100L354 77C345.65 77.4034 331.161 100.533 328 108L302 76z"/>
<path style="fill:#b79c61; stroke:none;" d="M405 76L406 77L405 76z"/>
<path style="fill:#42a544; stroke:none;" d="M437 76L438 77L437 76M477 76L478 77L477 76z"/>
<path style="fill:#b79c61; stroke:none;" d="M239 109L295 109C294.237 99.3407 291.809 89.1095 283.829 82.7894C263.447 66.6449 239.457 86.9913 239 109z"/>
<path style="fill:#42a544; stroke:none;" d="M468 77L469 78L468 77M555 77L556 78L555 77z"/>
<path style="fill:#b79c61; stroke:none;" d="M557 77L558 78L557 77z"/>
<path style="fill:#42a544; stroke:none;" d="M444 78L445 79L444 78M467 78L468 79L467 78M524.333 78.6667L524.667 79.3333L524.333 78.6667z"/>
<path style="fill:#b79c61; stroke:none;" d="M404 79L405 80L404 79z"/>
<path style="fill:#42a544; stroke:none;" d="M406 79L407 80L406 79M495 79L496 80L495 79M556 79L557 80L556 79z"/>
<path style="fill:#b79c61; stroke:none;" d="M558 79L559 80L558 79z"/>
<path style="fill:#42a544; stroke:none;" d="M517 80L518 81L517 80M405 81L406 82L405 81M488 81L489 82L488 81z"/>
<path style="fill:#b79c61; stroke:none;" d="M559 81L560 82L559 81z"/>
<path style="fill:#42a544; stroke:none;" d="M438 82L439 83L438 82M464 82L465 83L464 82M498 82L499 83L498 82M455 83L456 84L455 83M506 83L507 84L506 83M450 84L451 85L450 84M511.667 84.3333L512.333 84.6667L511.667 84.3333M558 84L559 85L558 84z"/>
<path style="fill:#b79c61; stroke:none;" d="M560.333 84.6667L560.667 85.3333L560.333 84.6667M401.333 86.6667L401.667 87.3333L401.333 86.6667z"/>
<path style="fill:#42a544; stroke:none;" d="M439 86L440 87L439 86M524 87L525 88L524 87M559 87L560 88L559 87z"/>
<path style="fill:#b79c61; stroke:none;" d="M561 87L562 88L561 87z"/>
<path style="fill:#fdfdfd; stroke:none;" d="M663 118C653.949 118.556 653.265 125.692 660.108 131.606C665.23 136.033 674.435 137.359 681 136.909C691.702 136.175 710.186 124.247 697.721 112.419C690.926 105.971 674.889 105.505 666 104C667.547 83.6623 690.732 103.603 698 105C703.816 84.7104 666.358 80.9116 658.089 95.0154C649.147 110.269 669.49 114.844 680 116.05C683.421 116.443 689.491 116.888 690.539 121.055C691.841 126.236 684.562 127.873 681 127.985C672.182 128.261 666.137 126.952 663 118z"/>
<path style="fill:#42a544; stroke:none;" d="M435 88L436 89L435 88M473 88L473 89L478 89L473 88z"/>
<path style="fill:#3c5e70; stroke:none;" d="M478 88.5555C455.843 90.2209 451.103 119.345 468.326 132.397C472.827 135.808 484.572 134.514 489.985 133.891C497.046 133.078 506.977 116.873 505.986 110C503.806 94.8813 491.94 87.5078 478 88.5555z"/>
<path style="fill:#42a544; stroke:none;" d="M480 88L480 89L483 89L480 88M485 88L485 89L488 89L485 88M489 88L490 89L489 88M527 88L528 89L527 88M494 89L495 90L494 89M530 89L531 90L530 89z"/>
<path style="fill:#b79c61; stroke:none;" d="M400 90L401 91L400 90z"/>
<path style="fill:#42a544; stroke:none;" d="M429 90L430 91L429 90M454 90L455 91L454 90z"/>
<path style="fill:#3c5e70; stroke:none;" d="M448 92L451 102L459 90L448 92z"/>
<path style="fill:#42a544; stroke:none;" d="M503.333 90.6667L503.667 91.3333L503.333 90.6667z"/>
<path style="fill:#3c5e70; stroke:none;" d="M504 90L509 102C517.985 96.5227 511.579 90.6041 504 90z"/>
<path style="fill:#42a544; stroke:none;" d="M508 90L509 91L508 90M449 91L450 92L449 91M513 91L514 92L513 91z"/>
<path style="fill:#b79c61; stroke:none;" d="M562 91L563 92L562 91z"/>
<path style="fill:#42a544; stroke:none;" d="M425 92L426 93L425 92M496 92L497 93L496 92M401 93L402 94L401 93M440 93L441 94L440 93M448 93L449 94L448 93M457 93L458 94L457 93z"/>
<path style="fill:#b79c61; stroke:none;" d="M399 94L400 95L399 94z"/>
<path style="fill:#42a544; stroke:none;" d="M421 94L422 95L421 94z"/>
<path style="fill:#3c5e70; stroke:none;" d="M442 128L447.343 111L442 94C433.541 94.7432 417.232 100.728 416.619 110.999C416.013 121.151 434.119 127.595 442 128z"/>
<path style="fill:#42a544; stroke:none;" d="M505 94L506 95L505 94z"/>
<path style="fill:#3c5e70; stroke:none;" d="M521.51 95.1211C513.464 99.8581 513.811 122.056 521.51 126.932C525.372 129.378 533.675 124.535 537 122.521C549.335 115.048 546.682 104.909 535 98.7847C531.88 97.1494 525.061 93.0306 521.51 95.1211z"/>
<path style="fill:#42a544; stroke:none;" d="M524 94L525 95L524 94M456 95L457 96L456 95M498 95L499 96L498 95M513 95L514 96L513 95M527 95L528 96L527 95M542 95L543 96L542 95M418 96L419 97L418 96M432 96L433 97L432 96M442 96L443 97L442 96M449 96L450 97L449 96M463 96L464 97L463 96M530 96L531 97L530 96z"/>
<path style="fill:#b79c61; stroke:none;" d="M563 96L563 99L564 99L563 96z"/>
<path style="fill:#42a544; stroke:none;" d="M417 97L418 98L417 97M532 97L533 98L532 97z"/>
<path style="fill:#62b9da; stroke:none;" d="M478.001 98.5617C461.292 102.761 468.645 128.034 484.999 123.566C500.67 119.285 493.93 94.559 478.001 98.5617z"/>
<path style="fill:#42a544; stroke:none;" d="M484 98L485 99L484 98M534 98L535 99L534 98M400 99L401 100L400 99M443 99L444 100L443 99M450 99L451 100L450 99M461 99L462 100L461 99M487 99L488 100L487 99M508 99L509 100L508 99M536 99L537 100L536 99z"/>
<path style="fill:#b79c61; stroke:none;" d="M398 100L399 101L398 100z"/>
<path style="fill:#42a544; stroke:none;" d="M424 100L425 101L424 100M473 100L474 101L473 100M501 100L502 101L501 100M413 101L414 102L413 101M460 101L461 102L460 101M539 101L540 102L539 101M562.333 101.667L562.667 102.333L562.333 101.667M444 102L445 103L444 102M502 102L503 103L502 102M420 103L421 104L420 103M459 103L460 104L459 103M517 103L518 104L517 103z"/>
<path style="fill:#b79c61; stroke:none;" d="M564.333 103.667L564.667 104.333L564.333 103.667z"/>
<path style="fill:#42a544; stroke:none;" d="M411 104L412 105L411 104M419 104L420 105L419 104M503 104L504 105L503 104M516 105L517 106L516 105M410 106L411 107L410 106M417 107L418 108L417 107M552.333 107.667L552.667 108.333L552.333 107.667M515 108L516 109L515 108M416 109L417 110L416 109M447 109L448 110L447 109M494 109L494 113L495 113L494 109M506 110L507 111L506 110M514.333 110.667L514.667 111.333L514.333 110.667M546 111L547 112L546 111M447 112L448 113L447 112M515 113L516 114L515 113M552.333 113.667L552.667 114.333L552.333 113.667M410 115L411 116L410 115M418 116L419 117L418 116M516 116L517 117L516 116M445 117L446 118L445 117M492 117L493 118L492 117M503 117L504 118L503 117M420 118L421 119L420 118M459 118L460 119L459 118M470 118L471 119L470 118M517 118L518 119L517 118M412 119L413 120L412 119M421 119L422 120L421 119M491 119L492 120L491 119z"/>
<path style="fill:#b79c61; stroke:none;" d="M564 119L564 122L565 122L564 119M398 120L398 123L399 123L398 120z"/>
<path style="fill:#3c5e70; stroke:none;" d="M451 120L448 130L459 132L451 120z"/>
<path style="fill:#42a544; stroke:none;" d="M460 120L461 121L460 120M490 120L491 121L490 120M509 120L510 121L509 120z"/>
<path style="fill:#3c5e70; stroke:none;" d="M510 120L503 132L514 131L510 120z"/>
<path style="fill:#42a544; stroke:none;" d="M549 120L550 121L549 120M453 121L454 122L453 121M473 121L474 122L473 121M501 121L502 122L501 121M511 121L512 122L511 121M538 121L539 122L538 121M548 121L549 122L548 121M443 122L444 123L443 122M450 122L451 123L450 122M461 122L462 123L461 122M474 122L475 123L474 122M508 122L509 123L508 122M562 122L563 123L562 122M400 123L401 124L400 123M427 123L428 124L427 123M454 123L455 124L454 123M546 123L547 124L546 123M545 124L546 125L545 124z"/>
<path style="fill:#b79c61; stroke:none;" d="M563 124L563 127L564 127L563 124z"/>
<path style="fill:#42a544; stroke:none;" d="M418 125L419 126L418 125M442 125L443 126L442 125M449 125L450 126L449 125M530 125L531 126L530 125z"/>
<path style="fill:#b79c61; stroke:none;" d="M399.333 126.667L399.667 127.333L399.333 126.667z"/>
<path style="fill:#42a544; stroke:none;" d="M434 126L435 127L434 126M528 126L529 127L528 126M464 127L465 128L464 127M525 127L526 128L525 127M561 127L562 128L561 127M440 128L441 129L440 128M448 128L449 129L448 128M457 128L458 129L457 128M539 128L540 129L539 128M496 129L497 130L496 129M504 129L505 130L504 129z"/>
<path style="fill:#b79c61; stroke:none;" d="M400.333 130.667L400.667 131.333L400.333 130.667z"/>
<path style="fill:#42a544; stroke:none;" d="M448 130L449 131L448 130M466 130L467 131L466 130z"/>
<path style="fill:#b79c61; stroke:none;" d="M562.333 130.667L562.667 131.333L562.333 130.667z"/>
<path style="fill:#42a544; stroke:none;" d="M429 131L430 132L429 131M453 131L454 132L453 131M508.667 131.333L509.333 131.667L508.667 131.333M533 131L534 132L533 131M402 132L403 133L402 132M431 132L432 133L431 132M493 133L494 134L493 133M528 133L529 134L528 133M437 134L438 135L437 134M525 134L526 135L525 134M559 134L560 135L559 134z"/>
<path style="fill:#b79c61; stroke:none;" d="M561 134L562 135L561 134z"/>
<path style="fill:#42a544; stroke:none;" d="M403 135L404 136L403 135M523 135L524 136L523 135M439 136L440 137L439 136z"/>
<path style="fill:#3c5e70; stroke:none;" d="M446 137C444.38 144.853 439.514 164.852 451.015 167.678C460.491 170.007 469.063 160.742 476 156C471.971 141.503 458.978 138.649 446 137z"/>
<path style="fill:#42a544; stroke:none;" d="M449 137L450 138L449 137M513 137L514 138L513 137z"/>
<path style="fill:#3c5e70; stroke:none;" d="M517 137C508.412 138.091 485.527 141.053 487.882 154.961C489.228 162.911 509.064 172.493 515.348 165.682C522.175 158.283 517.684 145.661 517 137z"/>
<path style="fill:#42a544; stroke:none;" d="M558 137L559 138L558 137z"/>
<path style="fill:#b79c61; stroke:none;" d="M560 137L561 138L560 137z"/>
<path style="fill:#42a544; stroke:none;" d="M404 138L405 139L404 138M455 138L456 139L455 138M506.667 138.333L507.333 138.667L506.667 138.333M445 139L446 140L445 139M460 139L460 140L463 140L460 139M499 139L499 140L502 140L499 139M438 140L439 141L438 140M474 140L475 141L474 140z"/>
<path style="fill:#3c5e70; stroke:none;" d="M474 141C478.903 148.385 483.524 149.598 488 141L487 140L474 141z"/>
<path style="fill:#42a544; stroke:none;" d="M476 140L476 141L481 141L476 140M482 140L483 141L482 140M484.667 140.333L485.333 140.667L484.667 140.333M487 140L488 141L487 140z"/>
<path style="fill:#b79c61; stroke:none;" d="M559 140L560 141L559 140M403 141L404 142L403 141z"/>
<path style="fill:#42a544; stroke:none;" d="M496 141L497 142L496 141M517 141L518 142L517 141M487 142L488 143L487 142M524.333 142.667L524.667 143.333L524.333 142.667M556 142L557 143L556 142z"/>
<path style="fill:#b79c61; stroke:none;" d="M558 142L559 143L558 142z"/>
<path style="fill:#42a544; stroke:none;" d="M444 143L445 144L444 143M467 143L468 144L467 143M476 144L477 145L476 144M555 144L556 145L555 144M407 145L408 146L407 145M437 145L438 146L437 145M477 145L478 146L477 145M493 145L494 146L493 145M492 146L493 147L492 146M518 146L518 149L519 149L518 146M554 146L555 147L554 146z"/>
<path style="fill:#b79c61; stroke:none;" d="M556.333 146.667L556.667 147.333L556.333 146.667M406 147L407 148L406 147z"/>
<path style="fill:#42a544; stroke:none;" d="M471 148L472 149L471 148M553 148L554 149L553 148z"/>
<path style="fill:#b79c61; stroke:none;" d="M407 149L408 150L407 149z"/>
<path style="fill:#42a544; stroke:none;" d="M525 149L525 157L526 157L525 149z"/>
<path style="fill:#b79c61; stroke:none;" d="M555 149L556 150L555 149z"/>
<path style="fill:#42a544; stroke:none;" d="M552 150L553 151L552 150z"/>
<path style="fill:#b79c61; stroke:none;" d="M554.333 150.667L554.667 151.333L554.333 150.667M408 151L409 152L408 151z"/>
<path style="fill:#42a544; stroke:none;" d="M411 152L412 153L411 152M551 152L552 153L551 152z"/>
<path style="fill:#b79c61; stroke:none;" d="M553.333 152.667L553.667 153.333L553.333 152.667z"/>
<path style="fill:#62b9da; stroke:none;" d="M113 153L113 157L114 157L115 153L113 153z"/>
<path style="fill:#b79c61; stroke:none;" d="M409 153L410 154L409 153M410.333 154.667L410.667 155.333L410.333 154.667z"/>
<path style="fill:#42a544; stroke:none;" d="M486 154L487 155L486 154z"/>
<path style="fill:#b79c61; stroke:none;" d="M552 154L553 155L552 154M114 155L113 161L114 161L114 158L115 158L116 163L117 163L114 155z"/>
<path style="fill:#42a544; stroke:none;" d="M549 155L550 156L549 155M474 156L475 157L474 156z"/>
<path style="fill:#b79c61; stroke:none;" d="M551 156L552 157L551 156z"/>
<path style="fill:#42a544; stroke:none;" d="M414 157L415 158L414 157M473 157L474 158L473 157z"/>
<path style="fill:#b79c61; stroke:none;" d="M550 157L551 158L550 157z"/>
<path style="fill:#fdfdfd; stroke:none;" d="M114 158L114 184L117 184C117 174.958 118.85 166.026 114 158z"/>
<path style="fill:#b79c61; stroke:none;" d="M412 158L413 159L412 158z"/>
<path style="fill:#42a544; stroke:none;" d="M415 158L416 159L415 158M518 158L519 159L518 158M547 158L548 159L547 158M491 159L492 160L491 159M546 159L547 160L546 159z"/>
<path style="fill:#b79c61; stroke:none;" d="M549 159L550 160L549 159z"/>
<path style="fill:#42a544; stroke:none;" d="M437 160L438 161L437 160M482 160L483 161L482 160M492 160L493 161L492 160z"/>
<path style="fill:#b79c61; stroke:none;" d="M548 160L549 161L548 160z"/>
<path style="fill:#62b9da; stroke:none;" d="M112.333 161.667L112.667 162.333L112.333 161.667M116 161L117 162L116 161z"/>
<path style="fill:#42a544; stroke:none;" d="M444 161L445 162L444 161M468 161L469 162L468 161M483 161L484 162L483 161M524.333 161.667L524.667 162.333L524.333 161.667z"/>
<path style="fill:#b79c61; stroke:none;" d="M415 162L416 163L415 162z"/>
<path style="fill:#42a544; stroke:none;" d="M418 162L419 163L418 162M477 162L478 163L477 162M517 162L518 163L517 162z"/>
<path style="fill:#b79c61; stroke:none;" d="M112 163L112 166L113 166L112 163z"/>
<path style="fill:#62b9da; stroke:none;" d="M117 163L118 164L117 163z"/>
<path style="fill:#b79c61; stroke:none;" d="M416 163L417 164L416 163z"/>
<path style="fill:#42a544; stroke:none;" d="M438 163L439 164L438 163M476 163L477 164L476 163z"/>
<path style="fill:#b79c61; stroke:none;" d="M546 163L547 164L546 163M117 164L118 165L117 164M417 164L418 165L417 164z"/>
<path style="fill:#42a544; stroke:none;" d="M498 164L499 165L498 164M516 164L517 165L516 164z"/>
<path style="fill:#b79c61; stroke:none;" d="M545 164L546 165L545 164z"/>
<path style="fill:#62b9da; stroke:none;" d="M111.333 165.667L111.667 166.333L111.333 165.667M118 165L119 166L118 165z"/>
<path style="fill:#b79c61; stroke:none;" d="M418 165L419 166L418 165z"/>
<path style="fill:#42a544; stroke:none;" d="M523 165L524 166L523 165z"/>
<path style="fill:#b79c61; stroke:none;" d="M544 165L545 166L544 165M118 166C116.701 171.457 119.035 180.736 114 184L114 185L117 186L118 166M419 166L420 167L419 166z"/>
<path style="fill:#42a544; stroke:none;" d="M439 166L440 167L439 166z"/>
<path style="fill:#b79c61; stroke:none;" d="M111 167L112 175L113 175L111 167z"/>
<path style="fill:#42a544; stroke:none;" d="M457 167L458 168L457 167M471 167L472 168L471 167M504 167L505 168L504 167M522 167L523 168L522 167z"/>
<path style="fill:#b79c61; stroke:none;" d="M420 168L421 169L420 168z"/>
<path style="fill:#42a544; stroke:none;" d="M452.667 168.333L453.333 168.667L452.667 168.333M508 168L508 169L511 169L508 168z"/>
<path style="fill:#b79c61; stroke:none;" d="M421 169L422 170L421 169z"/>
<path style="fill:#42a544; stroke:none;" d="M424 169L425 170L424 169M468 169L469 170L468 169z"/>
<path style="fill:#b79c61; stroke:none;" d="M422 170L423 171L422 170z"/>
<path style="fill:#42a544; stroke:none;" d="M495 170L496 171L495 170M520 170L521 171L520 170M519 171L520 172L519 171z"/>
<path style="fill:#b79c61; stroke:none;" d="M424 172L425 173L424 172z"/>
<path style="fill:#42a544; stroke:none;" d="M444 172L445 173L444 172M499 172L500 173L499 172z"/>
<path style="fill:#b79c61; stroke:none;" d="M425 173L426 174L425 173z"/>
<path style="fill:#42a544; stroke:none;" d="M460 173L461 174L460 173M501 173L502 174L501 173M516 173L517 174L516 173M533 173L534 174L533 173z"/>
<path style="fill:#b79c61; stroke:none;" d="M427 174L428 175L427 174z"/>
<path style="fill:#42a544; stroke:none;" d="M430 174L431 175L430 174M448 174L449 175L448 174M457 174L458 175L457 174M504 174L505 175L504 174M514 174L515 175L514 174z"/>
<path style="fill:#b79c61; stroke:none;" d="M535 174L536 175L535 174M113 175L113 184L114 184L113 175M534 175L535 176L534 175M429 176L430 177L429 176M431 177L432 178L431 177z"/>
<path style="fill:#42a544; stroke:none;" d="M434 177L435 178L434 177z"/>
<path style="fill:#b79c61; stroke:none;" d="M531 177L532 178L531 177M432 178L433 179L432 178M530 178L531 179L530 178M433 179L434 180L433 179z"/>
<path style="fill:#42a544; stroke:none;" d="M437 179L438 180L437 179M525 179L526 180L525 179z"/>
<path style="fill:#b79c61; stroke:none;" d="M529 179L530 180L529 179M435 180L436 181L435 180M527 180L528 181L527 180M436 181L437 182L436 181z"/>
<path style="fill:#42a544; stroke:none;" d="M440 181L441 182L440 181z"/>
<path style="fill:#b79c61; stroke:none;" d="M526 181L527 182L526 181z"/>
<path style="fill:#42a544; stroke:none;" d="M520 182L521 183L520 182z"/>
<path style="fill:#b79c61; stroke:none;" d="M524 182L525 183L524 182z"/>
<path style="fill:#42a544; stroke:none;" d="M444 183L445 184L444 183M518 183L519 184L518 183z"/>
<path style="fill:#b79c61; stroke:none;" d="M522 183L523 184L522 183M441 184L442 185L441 184M521 184L522 185L521 184M443 185L444 186L443 185z"/>
<path style="fill:#42a544; stroke:none;" d="M448 185L449 186L448 185M514 185L515 186L514 185z"/>
<path style="fill:#b79c61; stroke:none;" d="M519 185L520 186L519 185M445 186L446 187L445 186z"/>
<path style="fill:#42a544; stroke:none;" d="M512 186L513 187L512 186z"/>
<path style="fill:#b79c61; stroke:none;" d="M517 186L518 187L517 186M447 187L448 188L447 187z"/>
<path style="fill:#42a544; stroke:none;" d="M452 187L453 188L452 187z"/>
<path style="fill:#b79c61; stroke:none;" d="M514.667 187.333L515.333 187.667L514.667 187.333M449 188L450 189L449 188z"/>
<path style="fill:#42a544; stroke:none;" d="M455 188L456 189L455 188M507 188L508 189L507 188z"/>
<path style="fill:#b79c61; stroke:none;" d="M512 188L513 189L512 188z"/>
<path style="fill:#42a544; stroke:none;" d="M458 189L459 190L458 189z"/>
<path style="fill:#b79c61; stroke:none;" d="M510 189L511 190L510 189M455 190L456 191L455 190z"/>
<path style="fill:#42a544; stroke:none;" d="M461 190L462 191L461 190M500 190L501 191L500 190z"/>
<path style="fill:#b79c61; stroke:none;" d="M507 190L508 191L507 190M458.667 191.333L459.333 191.667L458.667 191.333z"/>
<path style="fill:#42a544; stroke:none;" d="M496 191L497 192L496 191z"/>
<path style="fill:#b79c61; stroke:none;" d="M503.667 191.333L504.333 191.667L503.667 191.333z"/>
<path style="fill:#42a544; stroke:none;" d="M472 192L473 193L472 192M488.667 192.333L489.333 192.667L488.667 192.333z"/>
<path style="fill:#b79c61; stroke:none;" d="M500 192L501 193L500 192M466.667 193.333L467.333 193.667L466.667 193.333M475 194L475 195L478 195L475 194M484 194L484 195L487 195L484 194z"/>
<path style="fill:#42a544; stroke:none;" d="M74 264L74 334L90 334L90 290L91 290C93.7911 299.689 99.251 309.001 103.753 318C105.255 321.002 106.643 325.626 110.213 326.682C124.041 330.772 134.011 300.376 137 290L138 290L138 334L154 334L154 264L135.39 264.603L128.753 275L115 305L113 305L99.2469 275L92.6096 264.603L74 264z"/>
<path style="fill:#b79c61; stroke:none;" d="M270 264L270 334L326 334L326 320L300 320L289.603 318.397L288 306L321 306L321 292C312.176 292 300.568 294.019 292.059 291.682C287.556 290.446 286.414 282.793 289.603 279.603C292.029 277.178 296.899 278 300 278L325 278L325 264L270 264z"/>
<path style="fill:#3c5e70; stroke:none;" d="M451 264L451 334L469 334L469 314L482.61 315.603L493.39 332.972L513 334L499 310C514.426 302.802 515.477 277.513 500.985 268.613C487.48 260.318 466.138 264 451 264z"/>
<path style="fill:#62b9da; stroke:none;" d="M487 264L487 265L490 265L487 264z"/>
<path style="fill:#b79c61; stroke:none;" d="M490 264L491 265L490 264M630 264L630 334L647 334L647 293L648 293L670 323L679.3 333.397L695 334L695 264L678 264L678 306L655.873 277L645.826 265.028L630 264z"/>
<path style="fill:#62b9da; stroke:none;" d="M94 265L95 266L94 265M133 265L134 266L133 265M493.667 265.333L494.333 265.667L493.667 265.333M496.667 266.333L497.333 266.667L496.667 266.333M132 267L133 268L132 267z"/>
<path style="fill:#b79c61; stroke:none;" d="M499 267L500 268L499 267z"/>
<path style="fill:#62b9da; stroke:none;" d="M131 269L132 270L131 269M502 269L503 270L502 269M503 270L504 271L503 270z"/>
<path style="fill:#b79c61; stroke:none;" d="M130 271L131 272L130 271M129 273L130 274L129 273z"/>
<path style="fill:#62b9da; stroke:none;" d="M506 273L507 274L506 273M507 274L508 275L507 274M128 275L129 276L128 275z"/>
<path style="fill:#42a544; stroke:none;" d="M508 276L509 277L508 276z"/>
<path style="fill:#b79c61; stroke:none;" d="M469 278L469 279L475 279L469 278z"/>
<path style="fill:#62b9da; stroke:none;" d="M475 278L476 279L475 278z"/>
<path style="fill:#b79c61; stroke:none;" d="M476 278L476 279L486 279L476 278z"/>
<path style="fill:#62b9da; stroke:none;" d="M486 278L487 279L486 278M509 278L510 279L509 278z"/>
<path style="fill:#fdfdfd; stroke:none;" d="M469 279L469 300C475.261 300 484.318 301.601 489.786 297.91C495.712 293.911 495.257 283.54 488.956 280.179C483.673 277.361 474.839 279 469 279z"/>
<path style="fill:#62b9da; stroke:none;" d="M488 279L489 280L488 279M490 280L491 281L490 280z"/>
<path style="fill:#b79c61; stroke:none;" d="M510 280L511 281L510 280M491 281L492 282L491 281z"/>
<path style="fill:#62b9da; stroke:none;" d="M510 281L511 282L510 281M492 282L493 283L492 282M493 284L494 285L493 284M511 285L511 288L512 288L511 285M104 286L105 287L104 286M105 288L106 289L105 288z"/>
<path style="fill:#b79c61; stroke:none;" d="M511 288L511 292L512 292L511 288z"/>
<path style="fill:#62b9da; stroke:none;" d="M90 290L91 291L90 290M106 290L107 291L106 290M137 290L138 291L137 290M91 292L92 293L91 292M107 292L108 293L107 292M120 292L121 293L120 292M136 292L137 293L136 292z"/>
<path style="fill:#b79c61; stroke:none;" d="M493 293L494 294L493 293z"/>
<path style="fill:#62b9da; stroke:none;" d="M92 294L93 295L92 294M108 294L109 295L108 294M119 294L120 295L119 294M135 294L136 295L135 294M492 295L493 296L492 295M510 295L511 296L510 295M93 296L94 297L93 296M109 296L110 297L109 296M118 296L119 297L118 296M134 296L135 297L134 296z"/>
<path style="fill:#b79c61; stroke:none;" d="M510 296L511 297L510 296z"/>
<path style="fill:#62b9da; stroke:none;" d="M94 298L95 299L94 298M110 298L111 299L110 298M117 298L118 299L117 298M133 298L134 299L133 298M489 298L490 299L489 298M486.667 299.333L487.333 299.667L486.667 299.333z"/>
<path style="fill:#b79c61; stroke:none;" d="M509 299L510 300L509 299z"/>
<path style="fill:#62b9da; stroke:none;" d="M95 300L96 301L95 300M111 300L112 301L111 300M116 300L117 301L116 300M132 300L133 301L132 300M508 301L509 302L508 301M112 302L113 303L112 302M115 302L116 303L115 302M131 302L132 303L131 302M113.667 304.333L114.333 304.667L113.667 304.333M130 304L131 305L130 304M506 304L507 305L506 304M505 305L506 306L505 305M129 306L130 307L129 306z"/>
<path style="fill:#42a544; stroke:none;" d="M504 306L505 307L504 306z"/>
<path style="fill:#62b9da; stroke:none;" d="M503 307L504 308L503 307M502 308L503 309L502 308M499 310L500 311L499 310M100 311L101 312L100 311z"/>
<path style="fill:#b79c61; stroke:none;" d="M499 311L500 312L499 311z"/>
<path style="fill:#62b9da; stroke:none;" d="M101 313L102 314L101 313M500 313L501 314L500 313M469 314L470 315L469 314z"/>
<path style="fill:#b79c61; stroke:none;" d="M470.667 314.333L471.333 314.667L470.667 314.333z"/>
<path style="fill:#62b9da; stroke:none;" d="M472.667 314.333L473.333 314.667L472.667 314.333z"/>
<path style="fill:#b79c61; stroke:none;" d="M474 314L474 315L478 315L474 314z"/>
<path style="fill:#62b9da; stroke:none;" d="M478 314L479 315L478 314z"/>
<path style="fill:#b79c61; stroke:none;" d="M479 314L480 315L479 314z"/>
<path style="fill:#62b9da; stroke:none;" d="M480 314L481 315L480 314z"/>
<path style="fill:#b79c61; stroke:none;" d="M481 314L482 315L481 314z"/>
<path style="fill:#62b9da; stroke:none;" d="M482 314L483 315L482 314z"/>
<path style="fill:#b79c61; stroke:none;" d="M102 315L103 316L102 315M125 315L126 316L125 315z"/>
<path style="fill:#62b9da; stroke:none;" d="M483 315L484 316L483 315M502 316L503 317L502 316M103 317L104 318L103 317M124 317L125 318L124 317M484 317L485 318L484 317z"/>
<path style="fill:#42a544; stroke:none;" d="M503 318L504 319L503 318z"/>
<path style="fill:#b79c61; stroke:none;" d="M104 319L105 320L104 319M123 319L124 320L123 319z"/>
<path style="fill:#62b9da; stroke:none;" d="M485 319L486 320L485 319z"/>
<path style="fill:#b79c61; stroke:none;" d="M504 319L505 320L504 319z"/>
<path style="fill:#62b9da; stroke:none;" d="M105 321L106 322L105 321M122 321L123 322L122 321z"/>
<path style="fill:#b79c61; stroke:none;" d="M486 321L487 322L486 321z"/>
<path style="fill:#62b9da; stroke:none;" d="M505 321L506 322L505 321M106 323L107 324L106 323M121 323L122 324L121 323z"/>
<path style="fill:#b79c61; stroke:none;" d="M487 323L488 324L487 323z"/>
<path style="fill:#62b9da; stroke:none;" d="M507 324L508 325L507 324M107 325L108 326L107 325M120 325L121 326L120 325z"/>
<path style="fill:#b79c61; stroke:none;" d="M488 325L489 326L488 325M489 327L490 328L489 327M509 327L510 328L509 327M490 329L491 330L490 329z"/>
<path style="fill:#62b9da; stroke:none;" d="M510 329L511 330L510 329z"/>
<path style="fill:#b79c61; stroke:none;" d="M511 330L512 331L511 330M491 331L492 332L491 331z"/>
<path style="fill:#62b9da; stroke:none;" d="M512 332L513 333L512 332z"/>
<path style="fill:#b79c61; stroke:none;" d="M492 333L493 334L492 333M513 333L514 334L513 333z"/>
</svg>
